<?xml version='1.0' encoding='iso-8859-1'?>
<svg version="1.1" xmlns="http://www.w3.org/2000/svg" viewBox="0 0 280.16 280.16" xmlns:xlink="http://www.w3.org/1999/xlink" enable-background="new 0 0 280.16 280.16">
  <g>
    <path d="m233.177,34.802h-186.194c-26.101,0-46.983,20.882-46.983,46.984v116.588c0,26.102 20.882,46.983 46.983,46.983h186.193c26.102,0 46.983-20.882 46.983-46.983v-116.588c0.001-26.102-20.881-46.984-46.982-46.984zm-184.453,19.142h186.193c14.878,0 28.033,12.581 29.321,27.267l-105.886,61.479c-8.701,5.22-26.102,5.22-36.543,0l-102.615-59.582c0.244-15.487 14.008-29.164 29.53-29.164zm-29.582,146.17v-96.333l56.432,32.766-55.893,68.491c-0.313-1.618-0.539-3.253-0.539-4.924zm215.775,29.582h-186.193c-7.5,0-14.565-3.254-19.924-8.3l62.018-75.991 22.291,12.946c8.701,5.22 17.401,6.96 27.842,6.96s20.882-1.74 27.842-6.96l21.873-12.703 62.784,76.896c-5.186,4.35-11.642,7.152-18.533,7.152zm29.582-29.582c0,2.453-0.435,4.82-1.079,7.135l-57.511-70.44 58.59-34.037v97.342z"/>
  </g>
</svg>
